<mxfile host="app.diagrams.net" modified="2024-05-04T02:58:09.711Z" agent="Mozilla/5.0 (Windows NT 10.0; Win64; x64) AppleWebKit/537.36 (KHTML, like Gecko) Chrome/124.0.0.0 Safari/537.36" etag="c1PaIf0TIajifZ4KCTQo" version="24.2.5" type="github">
  <diagram name="Page-1" id="kqeXl2SoTwWhClOGxrtb">
    <mxGraphModel dx="989" dy="514" grid="1" gridSize="10" guides="1" tooltips="1" connect="1" arrows="1" fold="1" page="1" pageScale="1" pageWidth="827" pageHeight="1169" math="0" shadow="0">
      <root>
        <mxCell id="0" />
        <mxCell id="1" parent="0" />
        <mxCell id="idiIzAm6HVF_mq_qb9nz-3" value="Requirements Breakdown Structure (RBS)" style="html=1;whiteSpace=wrap;" vertex="1" parent="1">
          <mxGeometry x="260" y="130" width="250" height="50" as="geometry" />
        </mxCell>
        <mxCell id="idiIzAm6HVF_mq_qb9nz-6" value="&lt;p style=&quot;margin:0px;margin-top:4px;text-align:center;&quot;&gt;&lt;b&gt;Class&lt;/b&gt;&lt;/p&gt;&lt;hr size=&quot;1&quot; style=&quot;border-style:solid;&quot;/&gt;&lt;div style=&quot;height:2px;&quot;&gt;&lt;/div&gt;" style="verticalAlign=top;align=left;overflow=fill;html=1;whiteSpace=wrap;" vertex="1" parent="1">
          <mxGeometry x="190" y="230" width="140" height="60" as="geometry" />
        </mxCell>
      </root>
    </mxGraphModel>
  </diagram>
</mxfile>
